<?xml version="1.0" standalone="no"?>
<!DOCTYPE svg PUBLIC "-//W3C//DTD SVG 20010904//EN"
 "http://www.w3.org/TR/2001/REC-SVG-20010904/DTD/svg10.dtd">
<svg version="1.0" xmlns="http://www.w3.org/2000/svg"
 width="512.000000pt" height="512.000000pt" viewBox="0 0 512.000000 512.000000"
 preserveAspectRatio="xMidYMid meet">
<metadata>
Created by potrace 1.14, written by Peter Selinger 2001-2017
</metadata>
<g transform="translate(0.000000,512.000000) scale(0.100000,-0.100000)"
fill="#000000" stroke="none">
<path d="M2305 5109 c-714 -73 -1360 -438 -1794 -1014 -275 -364 -438 -774
-497 -1250 -17 -144 -12 -510 10 -655 131 -854 660 -1569 1438 -1944 65 -31
123 -56 131 -56 7 0 17 -4 23 -9 13 -13 210 -78 323 -106 224 -56 389 -74 661
-70 243 3 359 17 580 71 979 241 1732 1052 1904 2049 26 153 31 222 31 455 -1
232 -9 320 -51 520 -99 470 -348 928 -693 1270 -65 65 -122 115 -248 221 -36
30 -223 153 -298 196 -287 166 -627 277 -969 317 -119 14 -436 17 -551 5z"/>
</g>
</svg>
